# xmcd
#
# Track frame offsets:
#	150
#	18057
#	36027
#	51777
#	65480
#	87337
#	106597
#	120907
#	137490
#	154545
#
# Disc length: 2300 seconds
#
# Revision: 0
# Processed by: cddbd v1.5.2PL0 Copyright (c) Steve Scherf et al.
# Submitted via: dBpowerAMP V4.0
#
DISCID=6a08fa0a
DTITLE=jacob dylan - Seeing Things
DYEAR=2008
DGENRE=fock/rock,
TTITLE0=Evil Is Alive And Well (Album Version
TTITLE1=Valley Of The Low Sun (Album Version
TTITLE2=All Day And All Night (Album Version)
TTITLE3=Everybody Pays As They Go (Album Version)
TTITLE4=Will It Grow (Album Version)
TTITLE5=I Told You I Couldn't Stop (Album Version
TTITLE6=War Is Kind (Album Version)
TTITLE7=Something Good This Way Comes (Album Version
TTITLE8=On Up The Mountain (Album Version
TTITLE9=This End Of The Telescope (Album Version
EXTD=jokob dylan -seeing things
EXTT0=
EXTT1=
EXTT2=
EXTT3=
EXTT4=
EXTT5=
EXTT6=
EXTT7=
EXTT8=
EXTT9=
PLAYORDER=
